<?xml version="1.0" encoding="UTF-8" standalone="no"?>
<svg
   xmlns:dc="http://purl.org/dc/elements/1.1/"
   xmlns:cc="http://creativecommons.org/ns#"
   xmlns:rdf="http://www.w3.org/1999/02/22-rdf-syntax-ns#"
   xmlns:svg="http://www.w3.org/2000/svg"
   xmlns="http://www.w3.org/2000/svg"
   viewBox="0 0 933.33331 666.66669"
   height="666.66669"
   width="933.33331"
   xml:space="preserve"
   id="svg2"
   version="1.1"><metadata
     id="metadata8"><rdf:RDF><cc:Work
         rdf:about=""><dc:format>image/svg+xml</dc:format><dc:type
           rdf:resource="http://purl.org/dc/dcmitype/StillImage" /></cc:Work></rdf:RDF></metadata><defs
     id="defs6"><clipPath
       id="clipPath18"
       clipPathUnits="userSpaceOnUse"><path
         id="path16"
         d="M 0,500 H 700 V 0 H 0 Z" /></clipPath><clipPath
       id="clipPath30"
       clipPathUnits="userSpaceOnUse"><path
         id="path28"
         d="M 0,500 H 700 V 0 H 0 Z" /></clipPath></defs><g
     transform="matrix(1.3333333,0,0,-1.3333333,0,666.66667)"
     id="g10"><g
       id="g12"><g
         clip-path="url(#clipPath18)"
         id="g14"><g
           transform="translate(147.2465,281.947)"
           id="g20"><path
             id="path22"
             style="fill:#f5f5ff;fill-opacity:1;fill-rule:nonzero;stroke:none"
             d="M 0,0 C 0,-91.632 104.207,-165.915 232.754,-165.915 361.3,-165.915 465.507,-91.632 465.507,0 465.507,91.632 361.3,165.915 232.754,165.915 104.207,165.915 0,91.632 0,0" /></g></g></g><g
       id="g24"><g
         clip-path="url(#clipPath30)"
         id="g26"><g
           transform="translate(70.4346,55.3575)"
           id="g32"><path
             id="path34"
             style="fill:#dfdfeb;fill-opacity:1;fill-rule:nonzero;stroke:none"
             d="m 0,0 c 0,-9.028 47.57,-16.346 106.251,-16.346 58.681,0 106.251,7.318 106.251,16.346 0,9.028 -47.57,16.346 -106.251,16.346 C 47.57,16.346 0,9.028 0,0" /></g><g
           transform="translate(158.4018,52.0883)"
           id="g36"><path
             id="path38"
             style="fill:#dfdfeb;fill-opacity:1;fill-rule:nonzero;stroke:none"
             d="m 0,0 c 0,-9.028 85.938,-16.346 191.948,-16.346 106.01,0 191.948,7.318 191.948,16.346 0,9.028 -85.938,16.346 -191.948,16.346 C 85.938,16.346 0,9.028 0,0" /></g><g
           transform="translate(298.1317,455.0615)"
           id="g40"><path
             id="path42"
             style="fill:#d3ddf7;fill-opacity:1;fill-rule:nonzero;stroke:none"
             d="m 0,0 c -19.821,-0.54 -36.221,-16.416 -37.361,-36.212 -0.671,-11.64 3.84,-22.232 11.431,-29.705 1.122,-1.104 1.643,-2.678 1.381,-4.23 l -2.851,-16.871 17.541,10.221 c 0.999,0.582 2.177,0.795 3.31,0.567 4.288,-0.865 8.831,-1.024 13.514,-0.315 17.329,2.625 30.849,16.972 32.447,34.425 C 41.542,-18.857 22.962,0.626 0,0" /></g><g
           transform="translate(296.798,396.3822)"
           id="g44"><path
             id="path46"
             style="fill:#000000;fill-opacity:1;fill-rule:nonzero;stroke:none"
             d="M 0,0 C 0,0.472 0.127,0.862 0.381,1.171 0.635,1.479 0.98,1.634 1.416,1.634 1.924,1.634 2.287,1.488 2.506,1.198 2.724,0.907 2.832,0.508 2.832,0 c 0,-0.436 -0.118,-0.817 -0.354,-1.144 -0.237,-0.327 -0.59,-0.49 -1.062,-0.49 -0.473,0 -0.826,0.146 -1.063,0.436 C 0.117,-0.908 0,-0.509 0,0 m 0.653,6.863 -0.108,9.205 c 1.343,0.327 2.568,0.753 3.676,1.28 1.107,0.526 2.079,1.134 2.914,1.825 0.835,0.689 1.534,1.461 2.097,2.315 0.563,0.852 0.989,1.77 1.281,2.75 0.29,0.981 0.435,2.016 0.435,3.105 0,1.561 -0.382,3.032 -1.144,4.412 -0.762,1.379 -1.852,2.496 -3.268,3.349 -1.416,0.854 -3.104,1.281 -5.065,1.281 -2.107,0 -4.058,-0.582 -5.856,-1.743 -1.798,-1.163 -3.169,-3.142 -4.112,-5.937 l -0.981,0.653 c 0.835,2.65 2.234,4.685 4.195,6.1 1.961,1.417 4.193,2.125 6.699,2.125 2.143,0 4.021,-0.454 5.638,-1.362 1.615,-0.908 2.877,-2.134 3.785,-3.677 0.907,-1.543 1.362,-3.277 1.362,-5.201 0,-1.453 -0.245,-2.815 -0.735,-4.085 C 10.976,21.986 10.285,20.825 9.395,19.772 8.506,18.718 7.426,17.802 6.154,17.021 4.883,16.24 3.449,15.65 1.852,15.251 L 1.743,6.863 Z" /></g><g
           transform="translate(186.7164,78.3616)"
           id="g48"><path
             id="path50"
             style="fill:#000000;fill-opacity:1;fill-rule:nonzero;stroke:none"
             d="m 0,0 1.708,-12.873 c 0,0 32.021,-13.639 29.051,-13.837 -2.97,-0.197 -48.986,2.772 -48.986,2.772 l 2.708,23.37 z" /></g><g
           transform="translate(177.796,288.5173)"
           id="g52"><path
             id="path54"
             style="fill:none;stroke:#424242;stroke-width:1;stroke-linecap:butt;stroke-linejoin:miter;stroke-miterlimit:10;stroke-dasharray:none;stroke-opacity:1"
             d="m 0,0 c 0,0 -2.552,-24.56 -4.465,-25.836 -1.914,-1.276 -4.466,-1.914 -4.466,-1.914 l 4.147,28.069 z" /></g><g
           transform="translate(127.2309,305.3987)"
           id="g56"><path
             id="path58"
             style="fill:#000000;fill-opacity:1;fill-rule:nonzero;stroke:none"
             d="m 0,0 c 0,0 -12.979,-29.307 -9.211,-45.635 l 71.946,10.973 -1.501,30.446 z" /></g><g
           transform="translate(189.9661,270.737)"
           id="g60"><path
             id="path62"
             style="fill:#000000;fill-opacity:1;fill-rule:nonzero;stroke:none"
             d="m 0,0 c 0,0 0.407,-70.315 0.907,-94.813 0.5,-24.498 4.785,-100.153 4.785,-100.153 0,0 -13.435,-7.407 -27.429,-1.422 -1.119,0.479 -13.173,197.045 -13.173,197.045 z" /></g><g
           transform="translate(119.2116,268.4666)"
           id="g64"><path
             id="path66"
             style="fill:#000000;fill-opacity:1;fill-rule:nonzero;stroke:none"
             d="m 0,0 -30.359,-193.339 c 0,0 13.258,-12.42 30.005,-1.116 l 30.87,157.923 14.991,10.065 2.233,28.808 z" /></g><g
           transform="translate(111.24,79.9145)"
           id="g68"><path
             id="path70"
             style="fill:#000000;fill-opacity:1;fill-rule:nonzero;stroke:none"
             d="m 0,0 2.764,-11.107 c 0,0 20.201,-24.295 17.224,-24.295 -2.977,0 -36.149,15.04 -36.149,15.04 l 4.253,23.139 z" /></g><g
           transform="translate(130.3012,293.5362)"
           id="g72"><path
             id="path74"
             style="fill:none;stroke:#424242;stroke-width:1;stroke-linecap:butt;stroke-linejoin:miter;stroke-miterlimit:10;stroke-dasharray:none;stroke-opacity:1"
             d="M 0,0 C 0,0 -19.132,-80.438 -33.354,-222.455" /></g><g
           transform="translate(143.4197,284.8836)"
           id="g76"><path
             id="path78"
             style="fill:none;stroke:#424242;stroke-width:1;stroke-linecap:butt;stroke-linejoin:miter;stroke-miterlimit:10;stroke-dasharray:none;stroke-opacity:1"
             d="M 0,0 C 0,0 -6.699,-16.747 -18.143,-17.026" /></g><g
           transform="translate(171.7164,73.1899)"
           id="g80"><path
             id="path82"
             style="fill:none;stroke:#424242;stroke-width:1;stroke-linecap:butt;stroke-linejoin:miter;stroke-miterlimit:10;stroke-dasharray:none;stroke-opacity:1"
             d="m 0,0 -9.789,166.43 9.562,10.028" /></g><g
           transform="translate(171.5884,389.6008)"
           id="g84"><path
             id="path86"
             style="fill:#9ec68a;fill-opacity:1;fill-rule:nonzero;stroke:none"
             d="m 0,0 c 4.978,1.019 8.611,1.75 8.611,1.75 l 31.048,-16.957 c 0.053,-0.028 0.105,-0.057 0.159,-0.087 10.173,-5.614 14.67,-15.139 14.403,-28.487 l 1.508,-19.337 -16.825,13.653 -14.223,-27.427 -9.033,-32.379 c -48.204,-17.528 -66.928,13.944 -66.928,13.944 l 15.972,34.573 6.45,31.93 C -25.793,-12.441 -16.328,-3.343 0,0" /></g><g
           transform="translate(432.232,334.9785)"
           id="g88"><path
             id="path90"
             style="fill:#7e9e6e;fill-opacity:1;fill-rule:nonzero;stroke:none"
             d="m 0,0 c 0,0 -4.864,-20.347 -32.391,-45.175 0,0 -2.627,3.716 3.25,18.036 C -23.264,-12.819 -1.153,5.078 0,0" /></g><g
           transform="translate(432.232,334.9785)"
           id="g92"><path
             id="path94"
             style="fill:none;stroke:#000000;stroke-width:1;stroke-linecap:round;stroke-linejoin:miter;stroke-miterlimit:10;stroke-dasharray:none;stroke-opacity:1"
             d="m 0,0 c 0,0 -24.307,-15.135 -32.391,-45.175 0,0 -1.857,-10.361 1.14,-19.633" /></g><g
           transform="translate(368.6954,322.3623)"
           id="g96"><path
             id="path98"
             style="fill:#7e9e6e;fill-opacity:1;fill-rule:nonzero;stroke:none"
             d="m 0,0 c 0,0 6.837,4.523 -3.59,17.582 -9.904,12.406 -20.512,23.64 -42.317,28.905 0,0 4.741,-30.294 18.653,-38.335 C -13.341,0.112 0,0 0,0" /></g><g
           transform="translate(313.7656,303.8313)"
           id="g100"><path
             id="path102"
             style="fill:#7e9e6e;fill-opacity:1;fill-rule:nonzero;stroke:none"
             d="m 0,0 c 0,0 22.685,-6.493 62.538,4.027 0,0 -2.161,4.189 -19.509,6.663 C 25.681,13.164 -4.326,3.643 0,0" /></g><g
           transform="translate(313.7656,303.8313)"
           id="g104"><path
             id="path106"
             style="fill:none;stroke:#000000;stroke-width:1;stroke-linecap:round;stroke-linejoin:miter;stroke-miterlimit:10;stroke-dasharray:none;stroke-opacity:1"
             d="m 0,0 c 0,0 28.539,12.843 62.538,4.027 0,0 3.484,-1.113 6.78,-6.16" /></g><g
           transform="translate(331.4979,281.7653)"
           id="g108"><path
             id="path110"
             style="fill:#7e9e6e;fill-opacity:1;fill-rule:nonzero;stroke:none"
             d="m 0,0 c 0,0 23.58,-17.784 63.434,-7.264 0,0 -6.709,14.213 -24.057,16.688 C 22.029,11.898 -4.326,3.643 0,0" /></g><g
           transform="translate(331.4979,281.7653)"
           id="g112"><path
             id="path114"
             style="fill:none;stroke:#000000;stroke-width:1;stroke-linecap:round;stroke-linejoin:miter;stroke-miterlimit:10;stroke-dasharray:none;stroke-opacity:1"
             d="m 0,0 c 0,0 27.329,10.68 63.434,-7.264 0,0 4.238,-2.222 7.535,-7.269" /></g><g
           transform="translate(419.8895,355.3317)"
           id="g116"><path
             id="path118"
             style="fill:#000000;fill-opacity:1;fill-rule:nonzero;stroke:none"
             d="m 0,0 c 0,0 7.321,0.405 -11.461,-14.861 -17.734,-14.414 -15.614,-14.672 -15.614,-14.672 0,0 7.838,22.769 27.075,29.533" /></g><g
           transform="translate(380.1321,318.7345)"
           id="g120"><path
             id="path122"
             style="fill:#7e9e6e;fill-opacity:1;fill-rule:nonzero;stroke:none"
             d="M 0,0 C 0,0 5.292,-2.44 15.656,5.915 26.02,14.27 30.952,34.055 39.757,36.597 39.757,36.597 17.717,31.005 0,0" /></g><g
           transform="translate(411.3116,247.6719)"
           id="g124"><path
             id="path126"
             style="fill:none;stroke:#000000;stroke-width:1;stroke-linecap:round;stroke-linejoin:miter;stroke-miterlimit:10;stroke-dasharray:none;stroke-opacity:1"
             d="m 0,0 c -9.614,22.946 -23.323,49.193 -42.616,74.69 0,0 -4.691,7.034 -21.365,25.558 -16.675,18.523 -24.542,20.93 -24.542,20.93" /></g><g
           transform="translate(417.2708,354.4289)"
           id="g128"><path
             id="path130"
             style="fill:none;stroke:#000000;stroke-width:1;stroke-linecap:round;stroke-linejoin:miter;stroke-miterlimit:10;stroke-dasharray:none;stroke-opacity:1"
             d="m 0,0 c 0,0 -21.122,-7.649 -37.139,-35.694 -3.88,-6.794 -0.131,-12.609 2.952,-17.037" /></g><g
           transform="translate(631.1191,90.144)"
           id="g132"><path
             id="path134"
             style="fill:#7e9e6e;fill-opacity:1;fill-rule:nonzero;stroke:none"
             d="m 0,0 c 0,0 -20.485,-6.148 -54.668,16.004 0,0 2.245,5.951 17.705,6.908 C -21.502,23.87 4.105,4.786 0,0" /></g><g
           transform="translate(630.3519,91.6494)"
           id="g136"><path
             id="path138"
             style="fill:none;stroke:#000000;stroke-width:1;stroke-linecap:round;stroke-linejoin:miter;stroke-miterlimit:10;stroke-dasharray:none;stroke-opacity:1"
             d="m 0,0 c 0,0 -22.503,17.707 -53.501,15.086 0,0 -10.375,-1.78 -18.073,-7.753" /></g><g
           transform="translate(586.5298,135.8026)"
           id="g140"><path
             id="path142"
             style="fill:#7e9e6e;fill-opacity:1;fill-rule:nonzero;stroke:none"
             d="m 0,0 c 0,0 6.58,-4.89 15.312,9.358 8.294,13.535 15.249,27.333 12.78,49.628 0,0 -26.873,-14.767 -29.7,-30.585 C -4.434,12.583 0,0 0,0" /></g><g
           transform="translate(639.3683,110.352)"
           id="g144"><path
             id="path146"
             style="fill:#000000;fill-opacity:1;fill-rule:nonzero;stroke:none"
             d="m 0,0 c 0,0 4.301,-5.939 -18.698,1.6 -21.718,7.118 -20.787,5.196 -20.787,5.196 0,0 23.389,5.724 39.485,-6.796" /></g><g
           transform="translate(587.0813,123.9928)"
           id="g148"><path
             id="path150"
             style="fill:#7e9e6e;fill-opacity:1;fill-rule:nonzero;stroke:none"
             d="M 0,0 C 0,0 0.81,-5.771 13.444,-9.968 26.078,-14.165 45.386,-7.61 52.287,-13.641 52.287,-13.641 35.661,1.872 0,0" /></g><g
           transform="translate(530.798,70.3139)"
           id="g152"><path
             id="path154"
             style="fill:none;stroke:#000000;stroke-width:1;stroke-linecap:round;stroke-linejoin:miter;stroke-miterlimit:10;stroke-dasharray:none;stroke-opacity:1"
             d="m 0,0 c 18.305,16.849 38.321,38.67 55.732,65.489 0,0 5.018,6.804 16.762,28.786 11.744,21.983 11.33,30.199 11.33,30.199" /></g><g
           transform="translate(637.1924,112.0661)"
           id="g156"><path
             id="path158"
             style="fill:none;stroke:#000000;stroke-width:1;stroke-linecap:round;stroke-linejoin:miter;stroke-miterlimit:10;stroke-dasharray:none;stroke-opacity:1"
             d="M 0,0 C 0,0 -17.86,13.627 -50.111,11.927 -57.924,11.515 -61.463,7.711 -67.32,0.406" /></g><g
           transform="translate(418.0923,294.0218)"
           id="g160"><path
             id="path162"
             style="fill:#333969;fill-opacity:1;fill-rule:nonzero;stroke:none"
             d="M 0,0 C 6.268,0 12.338,2.2 17.151,6.216 L 30.506,17.36 c 4.805,4.01 10.514,6.158 16.363,6.158 h 66.278 c 6.014,0 10.89,-4.875 10.89,-10.89 V 0 -227.316 c 0,-10.378 -8.414,-18.792 -18.792,-18.792 h -330.392 c -8.073,0 -14.617,6.544 -14.617,14.617 v 216.875 c 0,8.072 6.544,14.616 14.617,14.616 z" /></g><g
           transform="translate(178.3299,61.3062)"
           id="g164"><path
             id="path166"
             style="fill:#7584f1;fill-opacity:1;fill-rule:nonzero;stroke:none"
             d="m 0,0 c 0,0 22.485,42.178 24.734,47.021 l 61.451,125.192 c 1.545,3.326 4.88,5.454 8.547,5.454 H 323.09 c 8.301,0 20.309,4.352 26.683,9.671 l 9.215,7.689 c 4.805,4.01 10.514,6.159 16.363,6.159 h 63.073 c 6.714,0 11.275,-6.82 8.709,-13.025 L 370.863,3.692 c -4.276,-10.34 -14.362,-17.084 -25.551,-17.084 H 4.124 c -2.224,0 -4.278,1.905 -4.277,4.129 z" /></g><g
           transform="translate(271.2144,227.0697)"
           id="g168"><path
             id="path170"
             style="fill:none;stroke:#000000;stroke-width:1;stroke-linecap:butt;stroke-linejoin:round;stroke-miterlimit:10;stroke-dasharray:none;stroke-opacity:1"
             d="M 0,0 -90.173,-175.287" /></g><g
           transform="translate(308.3699,196.8632)"
           id="g172"><path
             id="path174"
             style="fill:none;stroke:#000000;stroke-width:1;stroke-linecap:butt;stroke-linejoin:round;stroke-miterlimit:10;stroke-dasharray:none;stroke-opacity:1"
             d="m 0,0 h 77.675 c 2.118,0 4.089,1.066 5.226,2.826 2.625,4.061 -0.338,9.376 -5.226,9.376 H 0 c -2.118,0 -4.089,-1.066 -5.226,-2.826 H -5.227 C -7.851,5.315 -4.888,0 0,0 Z" /></g><g
           transform="translate(453.6695,136.6173)"
           id="g176"><path
             id="path178"
             style="fill:none;stroke:#000000;stroke-width:1;stroke-linecap:round;stroke-linejoin:round;stroke-miterlimit:10;stroke-dasharray:none;stroke-opacity:1"
             d="M 0,0 -60.477,-36.031" /></g><g
           transform="translate(404.2226,138.3537)"
           id="g180"><path
             id="path182"
             style="fill:none;stroke:#000000;stroke-width:1;stroke-linecap:round;stroke-linejoin:round;stroke-miterlimit:10;stroke-dasharray:none;stroke-opacity:1"
             d="M 0,0 38.001,-37.984" /></g><g
           transform="translate(404.539,148.0129)"
           id="g184"><path
             id="path186"
             style="fill:none;stroke:#000000;stroke-width:1;stroke-linecap:round;stroke-linejoin:round;stroke-miterlimit:10;stroke-dasharray:none;stroke-opacity:1"
             d="M 0,0 C -22.222,-10.982 -31.442,-32.922 -20.594,-49.006 -9.746,-65.089 17.062,-69.224 39.284,-58.242 61.506,-47.26 70.726,-25.319 59.878,-9.236 49.03,6.847 22.222,10.982 0,0 Z" /></g><g
           transform="translate(193.7606,307.8541)"
           id="g188"><path
             id="path190"
             style="fill:#9ec68a;fill-opacity:1;fill-rule:nonzero;stroke:none"
             d="m 0,0 11.215,-12.594 c 0,0 -10.521,-12.414 -21.207,-5.061 l -1.714,2.459 z" /></g><g
           transform="translate(167.7011,382.9991)"
           id="g192"><path
             id="path194"
             style="fill:none;stroke:#000000;stroke-width:1;stroke-linecap:round;stroke-linejoin:miter;stroke-miterlimit:10;stroke-dasharray:none;stroke-opacity:1"
             d="M 0,0 C 0,0 15.366,-4.026 3.276,-48.447" /></g><g
           transform="translate(194.7019,306.5328)"
           id="g196"><path
             id="path198"
             style="fill:none;stroke:#000000;stroke-width:1;stroke-linecap:round;stroke-linejoin:miter;stroke-miterlimit:10;stroke-dasharray:none;stroke-opacity:1"
             d="M 0,0 C -8.296,9.321 -18.436,21.033 -24.426,29.108" /></g><g
           transform="translate(183.7689,290.1991)"
           id="g200"><path
             id="path202"
             style="fill:none;stroke:#000000;stroke-width:1;stroke-linecap:round;stroke-linejoin:miter;stroke-miterlimit:10;stroke-dasharray:none;stroke-opacity:1"
             d="m 0,0 c -7.962,8.163 -18.721,19.782 -23.417,24.088 -7.318,6.711 -14.913,17.509 -12.437,31.381 l -0.298,11.122" /></g><g
           transform="translate(231.5628,296.1602)"
           id="g204"><path
             id="path206"
             style="fill:#9ec68a;fill-opacity:1;fill-rule:nonzero;stroke:none"
             d="m 0,0 c -9.805,5.298 -14.322,11.858 -18.103,16.719 -9.02,11.597 -12.216,13.033 -9.573,26.531 l 0.145,14.126 19.569,-21.178 C -0.489,26.285 16.739,8.514 23.104,1.512 23.104,1.512 15.633,-8.446 0,0" /></g><g
           transform="translate(191.6539,299.7373)"
           id="g208"><path
             id="path210"
             style="fill:#db9c7f;fill-opacity:1;fill-rule:nonzero;stroke:none"
             d="m 0,0 c 0.902,0.247 1.837,0.323 2.767,0.225 3.357,-0.356 12.35,-1.299 13.364,-1.312 1.25,-0.017 2.266,1.849 4.948,-4.915 2.683,-6.764 2.201,-7.394 2.185,-8.278 -0.015,-0.884 -1.961,-13.873 -4.051,-11.922 -2.09,1.951 -1.809,3.087 -1.809,3.087 0,0 -1.127,-5.275 -1.72,-5.071 -0.593,0.203 -2.791,0.21 -2.438,3.934 0,0 -1.198,-3.62 -2.433,-2.72 -1.235,0.9 -0.958,4.814 -0.958,4.814 0,0 -1.322,-2.938 -2.832,-0.976 -1.509,1.961 -0.384,6.504 -0.384,6.504 l -1.266,3.376 -2.737,1.182 c 0,0 -9.213,-2.409 -10.798,3.985 C -9.379,-3.173 -3.013,-0.824 0,0" /></g><g
           transform="translate(210.1849,291.4447)"
           id="g212"><path
             id="path214"
             style="fill:none;stroke:#000000;stroke-width:1;stroke-linecap:round;stroke-linejoin:miter;stroke-miterlimit:10;stroke-dasharray:none;stroke-opacity:1"
             d="m 0,0 1.73,-7.27 -2.857,-7.552" /></g><g
           transform="translate(205.7437,291.7137)"
           id="g216"><path
             id="path218"
             style="fill:none;stroke:#000000;stroke-width:1;stroke-linecap:round;stroke-linejoin:miter;stroke-miterlimit:10;stroke-dasharray:none;stroke-opacity:1"
             d="m 0,0 2.241,-7.451 -3.085,-8.777" /></g><g
           transform="translate(201.8485,290.8824)"
           id="g220"><path
             id="path222"
             style="fill:none;stroke:#000000;stroke-width:1;stroke-linecap:round;stroke-linejoin:miter;stroke-miterlimit:10;stroke-dasharray:none;stroke-opacity:1"
             d="M 0,0 1.305,-7.164 -0.189,-12.53" /></g><g
           transform="translate(194.3244,429.0052)"
           id="g224"><path
             id="path226"
             style="fill:none;stroke:#000000;stroke-width:1;stroke-linecap:round;stroke-linejoin:miter;stroke-miterlimit:10;stroke-dasharray:none;stroke-opacity:1"
             d="m 0,0 c -3.269,-3.06 -3.317,-6.781 -3.317,-6.781 0,0 -1.124,1.388 -2.514,1.833" /></g><g
           transform="translate(241.0209,301.8184)"
           id="g228"><path
             id="path230"
             style="fill:#db9c7f;fill-opacity:1;fill-rule:nonzero;stroke:none"
             d="m 0,0 c 3.109,0.751 6.387,0.243 9.233,-1.215 3.745,-1.919 9.595,-4.891 10.358,-5.119 1.133,-0.338 1.872,0.275 2.022,-6.606 0.059,-2.719 0.051,-4.596 -0.191,-5.396 -0.243,-0.801 -5.739,-9.013 -7.544,-7.857 -0.049,0.032 -0.083,0.058 -0.128,0.088 -0.457,-0.615 -1.071,-1.369 -1.672,-1.882 -0.451,-0.386 -2.961,-0.333 -1.678,2.964 0,0 -1.739,-3.811 -3.092,-3.303 -1.764,0.662 -1.477,2.357 -0.834,3.791 -0.819,-1.106 -1.833,-2.007 -2.554,-1.049 -1.415,1.877 1.789,8.557 1.789,8.557 l 0.374,4.045 -2.446,2.189 c 0,0 -8.743,-0.214 -8.53,6.014 C -4.796,-1.925 -2.48,-0.599 0,0" /></g><g
           transform="translate(260.2077,291.3979)"
           id="g232"><path
             id="path234"
             style="fill:none;stroke:#000000;stroke-width:1;stroke-linecap:round;stroke-linejoin:miter;stroke-miterlimit:10;stroke-dasharray:none;stroke-opacity:1"
             d="m 0,0 -0.111,-7.378 -5.382,-7.831" /></g><g
           transform="translate(256.387,291.3403)"
           id="g236"><path
             id="path238"
             style="fill:none;stroke:#000000;stroke-width:1;stroke-linecap:round;stroke-linejoin:miter;stroke-miterlimit:10;stroke-dasharray:none;stroke-opacity:1"
             d="m 0,0 -0.421,-7.605 -4.545,-6.94" /></g><g
           transform="translate(252.5069,291.1409)"
           id="g240"><path
             id="path242"
             style="fill:none;stroke:#000000;stroke-width:1;stroke-linecap:round;stroke-linejoin:miter;stroke-miterlimit:10;stroke-dasharray:none;stroke-opacity:1"
             d="m 0,0 -0.545,-6.404 -3.879,-6.434" /></g><g
           transform="translate(241.4444,292.8479)"
           id="g244"><path
             id="path246"
             style="fill:#db9c7f;fill-opacity:1;fill-rule:nonzero;stroke:none"
             d="M 0,0 C 0,0 0.878,-6.601 -1.253,-8.05 -3.383,-9.499 -6.819,4.151 -4.456,4.326 -0.994,4.582 0,0 0,0" /></g><g
           transform="translate(244.3484,293.8017)"
           id="g248"><path
             id="path250"
             style="fill:none;stroke:#000000;stroke-width:1;stroke-linecap:round;stroke-linejoin:miter;stroke-miterlimit:10;stroke-dasharray:none;stroke-opacity:1"
             d="M 0,0 C 0,0 -2.119,-0.34 -2.724,-2.828" /></g><g
           transform="translate(203.2266,325.7468)"
           id="g252"><path
             id="path254"
             style="fill:none;stroke:#000000;stroke-width:1;stroke-linecap:round;stroke-linejoin:miter;stroke-miterlimit:10;stroke-dasharray:none;stroke-opacity:1"
             d="m 0,0 10.3,13.424 c 9.416,12.457 3.141,25.625 3.141,25.625" /></g><g
           transform="translate(227.3176,326.4825)"
           id="g256"><path
             id="path258"
             style="fill:none;stroke:#000000;stroke-width:1;stroke-linecap:round;stroke-linejoin:miter;stroke-miterlimit:10;stroke-dasharray:none;stroke-opacity:1"
             d="M 0,0 C 0,0 -6.068,8.413 -7.447,4.689" /></g><g
           transform="translate(229.6622,396.4965)"
           id="g260"><path
             id="path262"
             style="fill:none;stroke:#ffffff;stroke-width:1;stroke-linecap:butt;stroke-linejoin:miter;stroke-miterlimit:10;stroke-dasharray:none;stroke-opacity:1"
             d="M 0,0 -1.747,0.368" /></g><g
           transform="translate(193.14,398.1226)"
           id="g264"><path
             id="path266"
             style="fill:#ffffff;fill-opacity:1;fill-rule:nonzero;stroke:none"
             d="m 0,0 -12.941,-6.772 c 0,0 -0.339,-15.357 14.193,-27.031 l 6.527,6.341 6.576,-6.579 c 0,0 2.502,1.965 3.246,10.882 l -1.173,10.826 z" /></g><g
           transform="translate(209.5679,385.7898)"
           id="g268"><path
             id="path270"
             style="fill:none;stroke:#000000;stroke-width:1;stroke-linecap:round;stroke-linejoin:round;stroke-miterlimit:10;stroke-dasharray:none;stroke-opacity:1"
             d="M 0,0 -16.428,12.333 -29.368,5.561" /></g><g
           transform="translate(189.3827,395.7941)"
           id="g272"><path
             id="path274"
             style="fill:#db9c7f;fill-opacity:1;fill-rule:nonzero;stroke:none"
             d="m 0,0 c 0,0 4.001,-23.394 9.925,-25.052 5.924,-1.657 9.618,10.042 9.618,10.042 L 8.073,16.924 Z" /></g><g
           transform="translate(211.1262,377.9698)"
           id="g276"><path
             id="path278"
             style="fill:#000000;fill-opacity:1;fill-rule:nonzero;stroke:none"
             d="M 0,0 0.071,-2.908 C 0.125,-2.937 -0.047,-3.806 -2.931,-4.137 -15.603,-3.759 -16.605,10.499 -17.636,21.842 -17.636,21.842 1.17,2.265 0,0" /></g><g
           transform="translate(228.8583,409.7736)"
           id="g280"><path
             id="path282"
             style="fill:#db9c7f;fill-opacity:1;fill-rule:nonzero;stroke:none"
             d="m 0,0 c 0,0 3.255,-29.652 -14.139,-34.47 -17.393,-4.818 -21.561,23.547 -20.961,33.357 0.6,9.81 5.498,14.655 17.689,15.094 C 0.624,14.632 0,0 0,0" /></g><g
           transform="translate(202.8175,417.8111)"
           id="g284"><path
             id="path286"
             style="fill:#000000;fill-opacity:1;fill-rule:nonzero;stroke:none"
             d="m 0,0 c 0,0 -0.326,-6.232 -4.462,-7.477 l -2.974,-9.165 c 0,0 -2.492,4.073 -5.23,5.516 0,0 -3.024,12.103 0.783,16.912 3.807,4.81 9.099,7.247 21.902,6.183 9.745,-0.811 15.446,-7.724 17.308,-11.24 0.604,-1.14 2.069,-4.345 -1.355,-7.462 0,0 0.045,2.359 -1.955,5.117 0,0 -4.666,-9.539 -24.017,1.616" /></g><g
           transform="translate(186.1417,399.5975)"
           id="g288"><path
             id="path290"
             style="fill:#db9c7f;fill-opacity:1;fill-rule:nonzero;stroke:none"
             d="M 0,0 C 1.073,-3.913 4.151,-6.499 6.875,-5.777 9.6,-5.055 10.939,-1.298 9.866,2.615 8.794,6.527 5.716,9.114 2.991,8.392 0.267,7.67 -1.073,3.913 0,0" /></g><g
           transform="translate(211.2208,398.2906)"
           id="g292"><path
             id="path294"
             style="fill:#000000;fill-opacity:1;fill-rule:nonzero;stroke:none"
             d="m 0,0 c -0.05,-1.008 0.429,-1.851 1.07,-1.884 0.64,-0.032 1.2,0.758 1.249,1.766 C 2.369,0.89 1.89,1.733 1.249,1.766 0.609,1.798 0.05,1.008 0,0" /></g><g
           transform="translate(224.6368,397.4619)"
           id="g296"><path
             id="path298"
             style="fill:#000000;fill-opacity:1;fill-rule:nonzero;stroke:none"
             d="M 0,0 C -0.099,-0.944 0.288,-1.76 0.864,-1.821 1.44,-1.883 1.987,-1.167 2.086,-0.223 2.185,0.722 1.799,1.537 1.223,1.599 0.646,1.66 0.099,0.944 0,0" /></g><g
           transform="translate(207.3912,406.2731)"
           id="g300"><path
             id="path302"
             style="fill:none;stroke:#000000;stroke-width:1;stroke-linecap:round;stroke-linejoin:miter;stroke-miterlimit:10;stroke-dasharray:none;stroke-opacity:1"
             d="M 0,0 C 0,0 4.607,-0.987 4.914,3.383" /></g><g
           transform="translate(223.002,406.6309)"
           id="g304"><path
             id="path306"
             style="fill:none;stroke:#000000;stroke-width:1;stroke-linecap:round;stroke-linejoin:miter;stroke-miterlimit:10;stroke-dasharray:none;stroke-opacity:1"
             d="M 0,0 C 0,0 1.174,-4.061 4.637,-1.71" /></g><g
           transform="translate(210.4161,382.0457)"
           id="g308"><path
             id="path310"
             style="fill:#000000;fill-opacity:1;fill-rule:nonzero;stroke:none"
             d="M 0,0 C 0,0 -1.519,6.189 -6.233,2.641 Z" /></g><g
           transform="translate(188.8761,403.0042)"
           id="g312"><path
             id="path314"
             style="fill:none;stroke:#000000;stroke-width:1;stroke-linecap:round;stroke-linejoin:round;stroke-miterlimit:10;stroke-dasharray:none;stroke-opacity:1"
             d="m 0,0 c 0,0 3.064,2.636 4.738,-2.184 0,0 -1.79,-1.9 -0.66,-3.392 0,0 -1.765,-0.4 -2.635,1.156" /></g><g
           transform="translate(190.2027,401.1598)"
           id="g316"><path
             id="path318"
             style="fill:none;stroke:#000000;stroke-width:1;stroke-linecap:round;stroke-linejoin:round;stroke-miterlimit:10;stroke-dasharray:none;stroke-opacity:1"
             d="M 0,0 C 0,0 0.171,1.071 1.36,2.294" /></g><g
           transform="translate(221.977,397.6148)"
           id="g320"><path
             id="path322"
             style="fill:none;stroke:#ffffff;stroke-width:1;stroke-linecap:butt;stroke-linejoin:miter;stroke-miterlimit:10;stroke-dasharray:none;stroke-opacity:1"
             d="m 0,0 c 0,-2.864 1.76,-5.186 3.932,-5.186 2.171,0 3.932,2.322 3.932,5.186 0,2.864 -1.761,5.186 -3.932,5.186 C 1.76,5.186 0,2.864 0,0 Z" /></g><g
           transform="translate(207.261,398.3244)"
           id="g324"><path
             id="path326"
             style="fill:none;stroke:#ffffff;stroke-width:1;stroke-linecap:butt;stroke-linejoin:miter;stroke-miterlimit:10;stroke-dasharray:none;stroke-opacity:1"
             d="m 0,0 c 0,-3.035 2.241,-5.496 5.005,-5.496 2.764,0 5.005,2.461 5.005,5.496 0,3.035 -2.241,5.495 -5.005,5.495 C 2.241,5.495 0,3.035 0,0 Z" /></g><g
           transform="translate(222.1543,396.1137)"
           id="g328"><path
             id="path330"
             style="fill:none;stroke:#ffffff;stroke-width:1;stroke-linecap:butt;stroke-linejoin:miter;stroke-miterlimit:10;stroke-dasharray:none;stroke-opacity:1"
             d="M 0,0 C 0,0 -1.217,5.165 -5.165,0.366" /></g><g
           transform="translate(207.3661,400.4041)"
           id="g332"><path
             id="path334"
             style="fill:none;stroke:#ffffff;stroke-width:1;stroke-linecap:butt;stroke-linejoin:miter;stroke-miterlimit:10;stroke-dasharray:none;stroke-opacity:1"
             d="M 0,0 -11.631,2.62" /></g><g
           transform="translate(222.641,393.8287)"
           id="g336"><path
             id="path338"
             style="fill:none;stroke:#000000;stroke-width:1;stroke-linecap:round;stroke-linejoin:miter;stroke-miterlimit:10;stroke-dasharray:none;stroke-opacity:1"
             d="M 0,0 C 0.576,-0.731 0.696,-1.602 0.405,-2.544 0.118,-3.475 -0.83,-4.04 -1.79,-4.02 c -0.445,0.009 -0.873,0.129 -1.293,0.261 -0.183,0.057 -0.548,0.254 -0.746,0.167 -0.959,-0.425 -2.076,0.413 -1.756,1.067" /></g></g></g></g></svg>